<svg width="257" height="250" viewBox="0 0 257 250" fill="none" xmlns="http://www.w3.org/2000/svg">
<path fill-rule="evenodd" clip-rule="evenodd" d="M45.4 0H211C236.1 0 256.4 20.3 256.4 45.4V204.6C256.4 229.7 236.1 250 211 250H45.4C20.3 250 0 229.7 0 204.6V45.4C0 20.3 20.3 0 45.4 0ZM104 150H64.4L56.3 175.1C56.1 176.1 55.2 176.7 54.3 176.6H33.9C32.7 176.6 32.4 176 32.7 174.7L67.2 76.1C67.4631 75.1353 67.7262 74.4014 68.1242 73.2911C68.18 73.1354 68.2385 72.9722 68.3 72.8C68.7 70.6 68.9 68.2 68.9 65.9C68.8 65.4 69.2 64.8 69.8 64.7H97.6C98.5 64.7 98.9 65 99 65.6L137.9 174.6C138.2 175.8 137.9 176.3 136.8 176.3H114.5C113.8 176.4 113 175.9 112.8 175.1L104 149.7V150ZM70.6 128.7H97.7C97.1 126.5 96.2 123.8 95.2 121C94.501 118.973 93.8509 116.848 93.1813 114.66L93.1805 114.657C92.8924 113.716 92.6007 112.762 92.3 111.8C91.75 110.15 91.25 108.525 90.75 106.9C90.25 105.275 89.75 103.65 89.2 102C88.1001 98.7002 87.2001 95.6003 86.3001 92.5005C85.9043 91.1809 85.5469 89.8994 85.2029 88.6657C84.7648 87.0947 84.3481 85.6003 83.9 84.2H83.7C82.7 88.8 81.6 93.4 80.1 98C79.4393 100.106 78.7786 102.263 78.1108 104.443C77.1616 107.542 76.1979 110.689 75.2 113.8C73.8 119.2 72.2 124.2 70.6 128.7ZM150 111.5V175C149.9 175.1 149.9 175.2 150 175.6C150.1 176.4 150.8 176.9 151.5 176.8H171.8C172.8 176.8 173.2 176.4 173.2 175.3V116.3C175.1 114.6 177.2 113.2 179.6 112.2C182.1 111.1 184.9 110.7 187.7 110.7C190.3 110.6 192.8 111.2 195 112.6C196.9 113.8 198.4 115.8 199.4 117.9C200.7 120.8 201.3 124 201.4 127.2V175.5C201.5 176.4 202.2 176.9 203.1 176.8L223.2 176.6C224.2 176.6 224.6 176.2 224.6 175.1V124.6C224.6 117.6 223.9 111.9 222.2 107.5C219.6 100 213.6 94.2 206 91.7C202.8 90.6 199.4 90.1 196 90.1C191.6 90.1 187.3 90.8 183.1 92.2C179 93.7 175.1 95.9 171.8 98.8C171.7 97.7 171.5 96.5 171.2 95.3C171 94.4001 170.7 93.5001 170.5 92.9001C170.3 92.3001 170 91.9 169.6 91.7C169.1 91.5 168.5 91.4 167.9 91.4H150.7C150.2 91.4 149.9 91.5 149.6 91.7C149.3 92.1 149.3 92.5 149.4 92.8C149.5 94 149.6 96.1 149.7 98.2C149.752 99.2977 149.777 100.423 149.803 101.604C149.827 102.682 149.852 103.807 149.9 105C150 107.3 150 109.6 150 111.5Z" fill="#fff"/>
</svg>
