<svg width="258" height="282" viewBox="0 0 258 282" fill="none" xmlns="http://www.w3.org/2000/svg">
<path d="M211.9 99.2999C210.5 97.1999 209.1 95.2999 207.6 93.3999C206.1 91.4999 204.5 89.6 202.7 88C201 86.2 199.3 84.6 197.3 83C195.5 81.4 193.5 80 191.5 78.5C188.5 76.4 185.4 74.5 182.2 72.7C179 70.9 175.6 69.3999 172.3 68.0999C168.9 66.6999 165.4 65.6 161.9 64.7C158.4 63.8 154.8 63.0999 151.2 62.5999C149.4 62.3999 147.5 62.2 145.8 62C144 61.8 142.2 61.7 140.4 61.7C138.6 61.7 136.7 61.6999 134.9 61.7999C133.1 61.8999 131.2 61.9999 129.4 62.2999C127.6 62.4999 125.7 62.7999 123.9 63.0999C122.1 63.3999 120.3 63.7999 118.5 64.2999C116.7 64.7999 114.9 65.2999 113.1 65.7999C111.3 66.2999 109.6 67 107.8 67.7L55.3001 89.0999C53.9001 89.6999 52.4001 90.4 51.1001 91C49.7001 91.7 48.5001 92.3999 47.2001 93.2999C45.9001 94.0999 44.7001 94.9999 43.6001 95.8999C42.5001 96.7999 41.4001 97.6999 40.4001 98.7999C38.9001 100.3 37.5001 101.8 36.2001 103.5C34.9001 105.2 33.9001 106.9 32.9001 108.7C31.9001 110.5 31.1001 112.4 30.5001 114.3C29.9001 116.2 29.5001 118.2 29.1001 120.1C28.9001 121.1 28.9001 122.1 28.8001 123.1C28.6001 124.1 28.6001 125.2 28.6001 126.2C28.6001 127.2 28.7001 128.3 28.8001 129.3C28.9001 130.3 29.0001 131.4 29.2001 132.4C29.4001 133.4 29.7001 134.4 29.9001 135.4C30.2001 136.4 30.5001 137.5 30.9001 138.5C31.3001 139.5 31.7001 140.6 32.2001 141.5C32.7001 142.5 33.2001 143.5 33.7001 144.5C34.4001 145.9 35.3001 147.1 36.2001 148.3C37.1001 149.5 38.0001 150.7 39.1001 151.9C40.1001 153 41.2001 154.1 42.3001 155.2C43.4001 156.2 44.6001 157.2 45.8001 158.2C47.6001 159.6 49.6001 160.9 51.6001 162C53.6001 163.1 55.8001 164.2 57.9001 165C60.1001 165.9 62.3001 166.6 64.6001 167.2C66.9001 167.8 69.2001 168.2 71.6001 168.6C72.8001 168.8 74.0001 168.8 75.2001 168.9C76.4001 169 77.6001 169 78.8001 169C80.0001 169 81.2001 168.9 82.4001 168.8C83.6001 168.7 84.8001 168.6 86.0001 168.4C87.2001 168.2 88.4001 168 89.6001 167.8C90.8001 167.6 92.0001 167.2 93.1001 166.9C94.3001 166.6 95.4001 166.2 96.5001 165.8C97.6001 165.4 98.7001 164.9 99.9001 164.4L146.3 144C148.4 143.1 150.1 141.8 151.4 140.4C152.7 139 153.7 137.3 154.3 135.4C154.9 133.6 155 131.7 154.8 129.8C154.6 127.9 153.8 126 152.7 124.1C151.6 122.3 150.1 120.7 148.3 119.5C146.5 118.2 144.6 117.3 142.5 116.6C140.4 116 138.3 115.7 136.1 115.8C133.9 115.9 131.8 116.4 129.7 117.2L83.8001 137C83.3001 137.2 82.9001 137.3 82.4001 137.5C81.9001 137.7 81.5001 137.7 81.0001 137.9C80.5001 138 80.1001 138.1 79.6001 138.1C79.1001 138.2 78.7001 138.2 78.2001 138.2C77.5001 138.2 76.8001 138.2 76.1001 138.1C75.4001 138 74.7001 137.9 74.1001 137.8C73.5001 137.6 72.7001 137.5 72.1001 137.2C71.5001 137 70.8001 136.7 70.3001 136.4C70.0001 136.2 69.7001 136.1 69.4001 135.9C69.1001 135.7 68.8001 135.6 68.5001 135.3C68.3001 135.1 67.9001 134.9 67.7001 134.7C67.5001 134.5 67.2001 134.3 67.0001 134.1C66.8001 133.9 66.5001 133.6 66.3001 133.4C66.1001 133.2 65.8001 132.9 65.7001 132.7C65.5001 132.5 65.3001 132.1 65.1001 131.9C64.9001 131.7 64.7001 131.3 64.5001 131C64.3001 130.6 64.1001 130.2 63.9001 129.8C63.7001 129.4 63.6001 129 63.4001 128.6C63.2001 128.2 63.2001 127.8 63.1001 127.4C63.0001 127 62.9001 126.6 62.9001 126.2C62.8001 125.6 62.8001 125 62.9001 124.4C63.0001 123.8 63.1001 123.2 63.2001 122.6C63.4001 122 63.5001 121.5 63.8001 120.9C64.1001 120.3 64.4001 119.9 64.7001 119.3C64.9001 119.1 65.0001 118.8 65.3001 118.6C65.5001 118.4 65.7001 118.1 65.9001 117.9C66.1001 117.7 66.3001 117.4 66.5001 117.3C66.7001 117.1 67.0001 116.9 67.2001 116.7C67.4001 116.5 67.7001 116.3 67.9001 116.1C68.1001 115.9 68.5001 115.7 68.7001 115.5C69.0001 115.3 69.3001 115.2 69.6001 115C69.9001 114.8 70.2001 114.7 70.6001 114.6L123.4 92.5C124.8 91.9 126.1 91.4999 127.5 91.0999C128.9 90.6999 130.2 90.3 131.7 90C133.1 89.7 134.5 89.3999 135.9 89.2999C137.3 89.0999 138.7 89.1 140.1 89C142.2 88.9 144.3 89 146.4 89.2C148.5 89.4 150.6 89.7 152.7 90.2C154.8 90.7 156.9 91.1999 158.9 91.8999C160.9 92.5999 162.8 93.3999 164.7 94.2999C165.7 94.7999 166.5 95.3 167.5 95.7C168.4 96.3 169.3 96.6999 170.2 97.3999C171.1 97.9999 172 98.6 172.8 99.2C173.6 99.8 174.5 100.5 175.2 101.2C176 101.9 176.8 102.6 177.5 103.4C178.2 104.1 178.9 104.9 179.7 105.7C180.4 106.5 181.1 107.3 181.7 108.2C182.3 109.1 183 110 183.5 110.8C184.3 112 184.9 113.2 185.6 114.5C186.2 115.7 186.8 117 187.2 118.2C187.7 119.5 188.1 120.7 188.4 122C188.7 123.3 189 124.5 189.2 125.8C189.5 127.7 189.6 129.6 189.6 131.5C189.6 133.3 189.4 135.3 189 137.1C188.7 138.9 188.2 140.8 187.6 142.5C187 144.3 186.2 146 185.2 147.6C184.7 148.4 184.2 149.3 183.7 150C183.1 150.8 182.6 151.6 181.9 152.3C181.3 153 180.6 153.8 180 154.5C179.4 155.2 178.6 155.9 177.8 156.6C177.1 157.2 176.3 158 175.5 158.5C174.7 159.1 173.8 159.7 172.9 160.3C172 160.9 171.1 161.4 170.1 161.9C169.1 162.4 168.2 162.9 167.1 163.3L92.2001 197.1L121.3 241C122.7 243 124.3 244.7 126.3 246C128.2 247.3 130.4 248.2 132.6 248.8C134.8 249.4 137.2 249.5 139.5 249.3C141.8 249.1 144.1 248.3 146.1 247.2C148.1 246.1 149.8 244.6 151.1 243C152.4 241.4 153.3 239.6 153.8 237.6C154.3 235.7 154.4 233.6 154.1 231.6C153.8 229.6 153.1 227.5 151.9 225.6C151.8 225.5 151.8 225.4 151.7 225.4C151.6 225.3 151.6 225.2 151.5 225.2C151.5 225.1 151.4 225 151.3 225C151.2 224.9 151.2 224.8 151.1 224.8L141.8 211L184.6 192C187 190.9 189.2 189.7 191.5 188.4C193.7 187.1 195.7 185.7 197.7 184.2C199.7 182.7 201.5 181.2 203.3 179.6C205.1 178 206.7 176.3 208.2 174.6C210.4 172 212.5 169.2 214.3 166.4C216.1 163.5 217.6 160.6 218.8 157.5C220 154.4 221 151.3 221.8 148.1C222.5 144.9 222.9 141.7 223.2 138.4C223.3 136.8 223.3 135.1 223.3 133.4C223.2 131.7 223.1 130.1 223 128.4C222.8 126.7 222.5 125.1 222.3 123.4C222 121.7 221.6 120.1 221.1 118.4C220.6 116.8 220.1 115.1 219.5 113.5C218.9 111.9 218.2 110.2 217.5 108.6C216.8 107 216 105.4 215.1 103.8C213.9 102.4 212.9 100.8 211.9 99.2999Z" fill="#fff"/>
</svg>
